<svg width="34" height="34" viewBox="0 0 34 34" fill="none" xmlns="http://www.w3.org/2000/svg">
<path d="M0 17C0 7.61116 7.61116 0 17 0V0C26.3888 0 34 7.61116 34 17V17C34 26.3888 26.3888 34 17 34V34C7.61116 34 0 26.3888 0 17V17Z" fill="#60A5FA" fill-opacity="0.32"/>
<path d="M2 17C2 8.71573 8.71573 2 17 2V2C25.2843 2 32 8.71573 32 17V17C32 25.2843 25.2843 32 17 32V32C8.71573 32 2 25.2843 2 17V17Z" fill="#60A5FA"/>
<path d="M14.6991 22C14.4218 22 14.2031 21.9253 14.0431 21.776C13.8938 21.616 13.8191 21.4027 13.8191 21.136C13.8191 20.8587 13.8938 20.6507 14.0431 20.512C14.2031 20.3733 14.4218 20.304 14.6991 20.304H16.4911V12.448H17.4831L15.1311 13.872C14.9285 13.9893 14.7365 14.0373 14.5551 14.016C14.3845 13.984 14.2351 13.9093 14.1071 13.792C13.9898 13.664 13.9098 13.5147 13.8671 13.344C13.8245 13.1733 13.8351 13.0027 13.8991 12.832C13.9738 12.6507 14.1125 12.5013 14.3151 12.384L16.5231 11.056C16.7365 10.928 16.9498 10.8213 17.1631 10.736C17.3765 10.64 17.5738 10.592 17.7551 10.592C17.9791 10.592 18.1658 10.656 18.3151 10.784C18.4645 10.9013 18.5391 11.0987 18.5391 11.376V20.304H20.1711C20.4485 20.304 20.6618 20.3733 20.8111 20.512C20.9711 20.6507 21.0511 20.8587 21.0511 21.136C21.0511 21.4133 20.9711 21.6267 20.8111 21.776C20.6618 21.9253 20.4485 22 20.1711 22H14.6991Z" fill="black"/>
</svg>
