<svg width="34" height="34" viewBox="0 0 34 34" fill="none" xmlns="http://www.w3.org/2000/svg">
<path d="M0 17C0 7.61116 7.61116 0 17 0V0C26.3888 0 34 7.61116 34 17V17C34 26.3888 26.3888 34 17 34V34C7.61116 34 0 26.3888 0 17V17Z" fill="#4ADE80" fill-opacity="0.32"/>
<path d="M2 17C2 8.71573 8.71573 2 17 2V2C25.2843 2 32 8.71573 32 17V17C32 25.2843 25.2843 32 17 32V32C8.71573 32 2 25.2843 2 17V17Z" fill="#4ADE80"/>
<path d="M14.3311 22C13.9898 22 13.7391 21.9253 13.5791 21.776C13.4298 21.616 13.3551 21.3867 13.3551 21.088C13.3551 20.9067 13.4031 20.7307 13.4991 20.56C13.5951 20.3893 13.7338 20.208 13.9151 20.016L17.1311 16.592C17.6218 16.08 17.9738 15.616 18.1871 15.2C18.4005 14.7733 18.5071 14.3467 18.5071 13.92C18.5071 13.3867 18.3365 12.9813 17.9951 12.704C17.6645 12.4267 17.1791 12.288 16.5391 12.288C16.1765 12.288 15.8138 12.3413 15.4511 12.448C15.0885 12.544 14.7205 12.7147 14.3471 12.96C14.1551 13.088 13.9738 13.1413 13.8031 13.12C13.6431 13.0987 13.4991 13.0293 13.3711 12.912C13.2538 12.7947 13.1738 12.6507 13.1311 12.48C13.0885 12.3093 13.0938 12.1387 13.1471 11.968C13.2111 11.7867 13.3391 11.632 13.5311 11.504C13.9898 11.1947 14.5018 10.96 15.0671 10.8C15.6431 10.64 16.2191 10.56 16.7951 10.56C17.6058 10.56 18.2885 10.6827 18.8431 10.928C19.3978 11.1733 19.8191 11.5307 20.1071 12C20.3951 12.4693 20.5391 13.04 20.5391 13.712C20.5391 14.16 20.4645 14.5973 20.3151 15.024C20.1765 15.4507 19.9578 15.8827 19.6591 16.32C19.3711 16.7573 18.9925 17.2213 18.5231 17.712L15.5151 20.848V20.304H20.2191C20.5071 20.304 20.7258 20.3733 20.8751 20.512C21.0245 20.6507 21.0991 20.8587 21.0991 21.136C21.0991 21.4133 21.0245 21.6267 20.8751 21.776C20.7258 21.9253 20.5071 22 20.2191 22H14.3311Z" fill="black"/>
</svg>
