<svg width="34" height="34" viewBox="0 0 34 34" fill="none" xmlns="http://www.w3.org/2000/svg">
<path d="M0 17C0 7.61116 7.61116 0 17 0V0C26.3888 0 34 7.61116 34 17V17C34 26.3888 26.3888 34 17 34V34C7.61116 34 0 26.3888 0 17V17Z" fill="#FACC15" fill-opacity="0.32"/>
<path d="M2 17C2 8.71573 8.71573 2 17 2V2C25.2843 2 32 8.71573 32 17V17C32 25.2843 25.2843 32 17 32V32C8.71573 32 2 25.2843 2 17V17Z" fill="#FACC15"/>
<path d="M16.7791 22.16C16.2031 22.16 15.6058 22.0853 14.9871 21.936C14.3685 21.7867 13.8298 21.5627 13.3711 21.264C13.1578 21.1253 13.0138 20.9653 12.9391 20.784C12.8645 20.6027 12.8431 20.432 12.8751 20.272C12.9178 20.1013 12.9978 19.9573 13.1151 19.84C13.2431 19.7227 13.3978 19.6533 13.5791 19.632C13.7711 19.6107 13.9791 19.6587 14.2031 19.776C14.6405 20.0107 15.0618 20.1813 15.4671 20.288C15.8725 20.384 16.2885 20.432 16.7151 20.432C17.1845 20.432 17.5791 20.368 17.8991 20.24C18.2191 20.112 18.4591 19.92 18.6191 19.664C18.7898 19.408 18.8751 19.0987 18.8751 18.736C18.8751 18.2027 18.6938 17.808 18.3311 17.552C17.9791 17.2853 17.4618 17.152 16.7791 17.152H15.7551C15.4565 17.152 15.2271 17.0773 15.0671 16.928C14.9178 16.7787 14.8431 16.5707 14.8431 16.304C14.8431 16.0373 14.9178 15.8293 15.0671 15.68C15.2271 15.5307 15.4565 15.456 15.7551 15.456H16.5871C16.9925 15.456 17.3391 15.392 17.6271 15.264C17.9151 15.1253 18.1391 14.9333 18.2991 14.688C18.4591 14.4427 18.5391 14.144 18.5391 13.792C18.5391 13.3013 18.3738 12.928 18.0431 12.672C17.7231 12.416 17.2538 12.288 16.6351 12.288C16.2405 12.288 15.8671 12.336 15.5151 12.432C15.1738 12.5173 14.7951 12.6827 14.3791 12.928C14.1871 13.0453 14.0005 13.0933 13.8191 13.072C13.6485 13.0507 13.5045 12.9813 13.3871 12.864C13.2698 12.7467 13.1898 12.608 13.1471 12.448C13.1045 12.2773 13.1151 12.1067 13.1791 11.936C13.2431 11.7547 13.3765 11.6 13.5791 11.472C14.0378 11.1733 14.5445 10.9493 15.0991 10.8C15.6538 10.64 16.2245 10.56 16.8111 10.56C17.5898 10.56 18.2565 10.6827 18.8111 10.928C19.3658 11.1627 19.7871 11.504 20.0751 11.952C20.3738 12.3893 20.5231 12.9227 20.5231 13.552C20.5231 14 20.4378 14.4107 20.2671 14.784C20.0965 15.1467 19.8565 15.456 19.5471 15.712C19.2378 15.968 18.8645 16.1493 18.4271 16.256V16.064C19.1951 16.192 19.7925 16.512 20.2191 17.024C20.6458 17.5253 20.8591 18.1547 20.8591 18.912C20.8591 19.5733 20.6938 20.1493 20.3631 20.64C20.0325 21.1307 19.5631 21.5093 18.9551 21.776C18.3471 22.032 17.6218 22.16 16.7791 22.16Z" fill="black"/>
</svg>
