<svg width="35" height="34" viewBox="0 0 35 34" fill="none" xmlns="http://www.w3.org/2000/svg">
<path d="M0.5 17C0.5 7.61116 8.11116 0 17.5 0V0C26.8888 0 34.5 7.61116 34.5 17V17C34.5 26.3888 26.8888 34 17.5 34V34C8.11116 34 0.5 26.3888 0.5 17V17Z" fill="#4ADE80" fill-opacity="0.32"/>
<path d="M2.5 17C2.5 8.71573 9.21573 2 17.5 2V2C25.7843 2 32.5 8.71573 32.5 17V17C32.5 25.2843 25.7843 32 17.5 32V32C9.21573 32 2.5 25.2843 2.5 17V17Z" fill="#4ADE80"/>
<path d="M19.3111 22.128C18.9911 22.128 18.7405 22.0427 18.5591 21.872C18.3778 21.6907 18.2871 21.4347 18.2871 21.104V19.856H14.3351C14.0045 19.856 13.7378 19.7867 13.5351 19.648C13.3431 19.5093 13.2471 19.2907 13.2471 18.992C13.2471 18.8213 13.2898 18.6347 13.3751 18.432C13.4711 18.2293 13.6365 17.9627 13.8711 17.632L18.2551 11.28C18.4045 11.056 18.5698 10.8853 18.7511 10.768C18.9325 10.6507 19.1405 10.592 19.3751 10.592C19.6525 10.592 19.8818 10.6773 20.0631 10.848C20.2445 11.008 20.3351 11.264 20.3351 11.616V18.16H21.1191C21.4285 18.16 21.6578 18.2347 21.8071 18.384C21.9671 18.5227 22.0471 18.7307 22.0471 19.008C22.0471 19.2853 21.9671 19.4987 21.8071 19.648C21.6578 19.7867 21.4285 19.856 21.1191 19.856H20.3351V21.104C20.3351 21.4347 20.2445 21.6907 20.0631 21.872C19.8818 22.0427 19.6311 22.128 19.3111 22.128ZM18.2871 18.16V13.168H18.7511L14.9751 18.704V18.16H18.2871Z" fill="black"/>
</svg>
