<svg width="35" height="34" viewBox="0 0 35 34" fill="none" xmlns="http://www.w3.org/2000/svg">
<path d="M0.5 17C0.5 7.61116 8.11116 0 17.5 0V0C26.8888 0 34.5 7.61116 34.5 17V17C34.5 26.3888 26.8888 34 17.5 34V34C8.11116 34 0.5 26.3888 0.5 17V17Z" fill="#60A5FA" fill-opacity="0.32"/>
<path d="M2.5 17C2.5 8.71573 9.21573 2 17.5 2V2C25.7843 2 32.5 8.71573 32.5 17V17C32.5 25.2843 25.7843 32 17.5 32V32C9.21573 32 2.5 25.2843 2.5 17V17Z" fill="#60A5FA"/>
<path d="M17.5991 22.16C17.0338 22.16 16.4578 22.0853 15.8711 21.936C15.2845 21.7867 14.7458 21.5573 14.2551 21.248C14.0525 21.12 13.9138 20.9707 13.8391 20.8C13.7751 20.6187 13.7591 20.4427 13.7911 20.272C13.8338 20.0907 13.9138 19.9413 14.0311 19.824C14.1591 19.696 14.3085 19.6213 14.4791 19.6C14.6605 19.5787 14.8578 19.6267 15.0711 19.744C15.4658 19.968 15.8658 20.1387 16.2711 20.256C16.6765 20.3733 17.1085 20.432 17.5671 20.432C18.0151 20.432 18.3991 20.352 18.7191 20.192C19.0391 20.032 19.2845 19.808 19.4551 19.52C19.6258 19.232 19.7111 18.896 19.7111 18.512C19.7111 17.9147 19.5298 17.4347 19.1671 17.072C18.8045 16.6987 18.3085 16.512 17.6791 16.512C17.3378 16.512 17.0071 16.5707 16.6871 16.688C16.3671 16.7947 16.0525 16.9867 15.7431 17.264C15.6471 17.3493 15.5245 17.4347 15.3751 17.52C15.2258 17.5947 15.0658 17.632 14.8951 17.632C14.6285 17.632 14.4258 17.5627 14.2871 17.424C14.1485 17.2853 14.0791 17.0933 14.0791 16.848V11.616C14.0791 11.328 14.1538 11.1093 14.3031 10.96C14.4631 10.8 14.6871 10.72 14.9751 10.72H20.2391C20.5271 10.72 20.7458 10.7947 20.8951 10.944C21.0551 11.0827 21.1351 11.2907 21.1351 11.568C21.1351 11.8347 21.0551 12.0427 20.8951 12.192C20.7458 12.3413 20.5271 12.416 20.2391 12.416H16.0791V16H15.5511C15.8285 15.6267 16.1965 15.3387 16.6551 15.136C17.1138 14.9333 17.6151 14.832 18.1591 14.832C18.8738 14.832 19.4925 14.9867 20.0151 15.296C20.5485 15.5947 20.9591 16.016 21.2471 16.56C21.5458 17.0933 21.6951 17.7173 21.6951 18.432C21.6951 19.168 21.5298 19.8187 21.1991 20.384C20.8685 20.9387 20.3938 21.376 19.7751 21.696C19.1671 22.0053 18.4418 22.16 17.5991 22.16Z" fill="black"/>
</svg>
