<svg width="14" height="14" viewBox="0 0 14 14" fill="none" xmlns="http://www.w3.org/2000/svg">
<g clip-path="url(#clip0_3113_4365)">
<path d="M6.36956 1.67307C6.43376 1.56292 6.52571 1.47152 6.63626 1.40799C6.7468 1.34447 6.87207 1.31104 6.99956 1.31104C7.12706 1.31104 7.25233 1.34447 7.36287 1.40799C7.47342 1.47152 7.56537 1.56292 7.62956 1.67307L9.25998 4.47191L12.4263 5.15791C12.5509 5.18497 12.6661 5.24421 12.7607 5.32972C12.8552 5.41522 12.9256 5.52401 12.965 5.64524C13.0044 5.76646 13.0113 5.89589 12.985 6.02061C12.9588 6.14533 12.9003 6.261 12.8154 6.35607L10.6571 8.77166L10.9837 11.9946C10.9966 12.1215 10.976 12.2495 10.9239 12.366C10.8718 12.4824 10.7901 12.5832 10.6869 12.6581C10.5837 12.7331 10.4626 12.7797 10.3358 12.7933C10.209 12.8068 10.0808 12.7869 9.96406 12.7354L6.99956 11.4287L4.03506 12.7354C3.91835 12.7869 3.79017 12.8068 3.66334 12.7933C3.5365 12.7797 3.41544 12.7331 3.31224 12.6581C3.20904 12.5832 3.12732 12.4824 3.07523 12.366C3.02314 12.2495 3.00251 12.1215 3.0154 11.9946L3.34206 8.77166L1.18373 6.35666C1.0987 6.26159 1.04009 6.14588 1.01376 6.02107C0.987423 5.89627 0.994288 5.76675 1.03366 5.64543C1.07304 5.52411 1.14355 5.41524 1.23816 5.3297C1.33277 5.24415 1.44816 5.18491 1.57281 5.15791L4.73915 4.47191L6.36956 1.67307Z" fill="#16A34A"/>
<path d="M6.36956 1.67307C6.43376 1.56292 6.52571 1.47152 6.63626 1.40799C6.7468 1.34447 6.87207 1.31104 6.99956 1.31104C7.12706 1.31104 7.25233 1.34447 7.36287 1.40799C7.47342 1.47152 7.56537 1.56292 7.62956 1.67307L9.25998 4.47191L12.4263 5.15791C12.5509 5.18497 12.6661 5.24421 12.7607 5.32972C12.8552 5.41522 12.9256 5.52401 12.965 5.64524C13.0044 5.76646 13.0113 5.89589 12.985 6.02061C12.9588 6.14533 12.9003 6.261 12.8154 6.35607L10.6571 8.77166L10.9837 11.9946C10.9966 12.1215 10.976 12.2495 10.9239 12.366C10.8718 12.4824 10.7901 12.5832 10.6869 12.6581C10.5837 12.7331 10.4626 12.7797 10.3358 12.7933C10.209 12.8068 10.0808 12.7869 9.96406 12.7354L6.99956 11.4287L4.03506 12.7354C3.91835 12.7869 3.79017 12.8068 3.66334 12.7933C3.5365 12.7797 3.41544 12.7331 3.31224 12.6581C3.20904 12.5832 3.12732 12.4824 3.07523 12.366C3.02314 12.2495 3.00251 12.1215 3.0154 11.9946L3.34206 8.77166L1.18373 6.35666C1.0987 6.26159 1.04009 6.14588 1.01376 6.02107C0.987423 5.89627 0.994288 5.76675 1.03366 5.64543C1.07304 5.52411 1.14355 5.41524 1.23816 5.3297C1.33277 5.24415 1.44816 5.18491 1.57281 5.15791L4.73915 4.47191L6.36956 1.67307Z" fill="#16A34A"/>
</g>
<defs>
<clipPath id="clip0_3113_4365">
<rect width="14" height="14" fill="white"/>
</clipPath>
</defs>
</svg>
